<svg width="480" height="318" viewBox="0 0 480 318" fill="none" xmlns="http://www.w3.org/2000/svg">
<path d="M292.863 114.775C290.016 117.634 287.836 121.086 286.478 124.882C285.12 128.68 284.617 132.729 285.005 136.742L284.87 136.607C285.27 141.332 284.631 146.085 283 150.538C281.37 154.99 278.785 159.033 275.428 162.386C272.07 165.738 268.021 168.319 263.561 169.946C259.101 171.574 254.339 172.212 249.608 171.813L249.744 171.948C244.084 171.422 238.399 172.651 233.465 175.469C228.531 178.287 224.587 182.555 222.172 187.693C219.757 192.83 218.987 198.586 219.968 204.177C220.95 209.766 223.634 214.918 227.655 218.929C231.676 222.94 236.838 225.616 242.438 226.59C248.038 227.565 253.802 226.791 258.946 224.375C264.089 221.959 268.361 218.018 271.179 213.089C273.996 208.16 275.223 202.484 274.691 196.833L274.834 196.968C274.434 192.245 275.072 187.49 276.703 183.038C278.334 178.585 280.919 174.542 284.276 171.19C287.634 167.838 291.684 165.257 296.143 163.629C300.603 162.001 305.364 161.364 310.096 161.763L309.953 161.628C314.576 162.042 319.23 161.286 323.483 159.427C327.734 157.569 331.448 154.668 334.279 150.996C337.109 147.323 338.966 142.995 339.676 138.416C340.386 133.835 339.926 129.151 338.339 124.795C336.753 120.439 334.09 116.554 330.599 113.499C327.109 110.445 322.902 108.319 318.369 107.32C313.836 106.321 309.124 106.48 304.669 107.783C300.214 109.086 296.162 111.491 292.886 114.775H292.863Z" fill="#003049"/>
<path d="M237.447 154.263L237.304 154.128C241.325 154.532 245.386 154.04 249.194 152.685C253.001 151.331 256.46 149.149 259.319 146.297C262.177 143.444 264.366 139.993 265.725 136.192C267.085 132.392 267.582 128.338 267.18 124.323L267.322 124.458C266.923 119.733 267.561 114.98 269.191 110.527C270.822 106.075 273.407 102.032 276.764 98.6791C280.122 95.3273 284.172 92.7465 288.631 91.1189C293.091 89.4904 297.852 88.8534 302.584 89.2522L302.442 89.1172C308.102 89.6482 313.788 88.4223 318.725 85.6078C323.663 82.7934 327.609 78.5268 330.028 73.3902C332.447 68.2536 333.22 62.4971 332.242 56.9057C331.264 51.3142 328.582 46.1603 324.562 42.1467C320.542 38.1332 315.38 35.4553 309.779 34.4787C304.179 33.5019 298.414 34.2738 293.268 36.6889C288.123 39.1041 283.851 43.045 281.031 47.9741C278.212 52.9032 276.984 58.5806 277.516 64.2318L277.381 64.0893C277.781 68.8135 277.144 73.5681 275.514 78.0211C273.884 82.4741 271.299 86.5181 267.942 89.8709C264.584 93.2227 260.534 95.8035 256.074 97.431C251.613 99.0586 246.851 99.6946 242.119 99.2948L242.254 99.4373C238.233 99.0331 234.171 99.5258 230.364 100.88C226.557 102.234 223.098 104.417 220.239 107.269C217.38 110.121 215.192 113.573 213.832 117.373C212.473 121.173 211.977 125.227 212.379 129.243L212.243 129.108C212.642 133.831 212.002 138.585 210.371 143.037C208.74 147.488 206.156 151.532 202.798 154.883C199.441 158.235 195.392 160.815 190.933 162.444C186.474 164.073 181.713 164.711 176.982 164.313L177.117 164.448C171.457 163.917 165.77 165.143 160.833 167.958C155.896 170.772 151.949 175.038 149.53 180.175C147.111 185.312 146.338 191.068 147.316 196.66C148.294 202.251 150.976 207.405 154.996 211.419C159.016 215.433 164.179 218.11 169.779 219.087C175.379 220.063 181.145 219.291 186.29 216.876C191.435 214.461 195.708 210.521 198.527 205.592C201.346 200.662 202.574 194.985 202.042 189.334L202.185 189.469C201.785 184.744 202.424 179.991 204.055 175.538C205.685 171.086 208.27 167.043 211.627 163.69C214.985 160.338 219.034 157.757 223.494 156.13C227.954 154.502 232.715 153.864 237.447 154.263Z" fill="#003049"/>
<path d="M187.1 139.209C189.947 136.35 192.127 132.898 193.484 129.101C194.841 125.304 195.342 121.254 194.95 117.241L195.093 117.376C194.693 112.651 195.332 107.895 196.963 103.442C198.595 98.9881 201.181 94.9441 204.54 91.5915C207.9 88.2391 211.951 85.6592 216.413 84.032C220.874 82.4048 225.637 81.7695 230.37 82.1706L230.227 82.0356C235.885 82.5649 241.57 81.3387 246.505 78.5244C251.439 75.7101 255.384 71.4446 257.802 66.3096C260.219 61.1746 260.992 55.4201 260.014 49.8308C259.036 44.2415 256.354 39.0895 252.336 35.0774C248.317 31.0653 243.156 28.3883 237.558 27.4117C231.96 26.4349 226.196 27.2061 221.054 29.6198C215.91 32.0335 211.638 35.9723 208.819 40.8991C206 45.826 204.772 51.501 205.302 57.1502L205.167 57.0152C205.567 61.7392 204.928 66.4933 203.297 70.9457C201.666 75.398 199.082 79.4414 195.725 82.7937C192.367 86.1459 188.317 88.7262 183.858 90.354C179.398 91.9823 174.637 92.6198 169.905 92.2208L170.04 92.3558C165.417 91.9418 160.764 92.7 156.512 94.5593C152.261 96.4186 148.548 99.3196 145.718 102.993C142.888 106.666 141.033 110.994 140.324 115.573C139.615 120.153 140.075 124.838 141.662 129.193C143.249 133.548 145.912 137.432 149.403 140.486C152.894 143.541 157.101 145.666 161.633 146.665C166.166 147.663 170.878 147.503 175.332 146.201C179.787 144.897 183.839 142.493 187.115 139.209H187.1Z" fill="#003049"/>
<path d="M75.4041 278.6C74.3907 276.733 72.9241 275.32 71.0041 274.36C69.1374 273.347 66.9241 272.84 64.3641 272.84C59.9374 272.84 56.3907 274.307 53.7241 277.24C51.0574 280.12 49.7241 283.987 49.7241 288.84C49.7241 294.013 51.1107 298.067 53.8841 301C56.7107 303.88 60.5774 305.32 65.4841 305.32C68.8441 305.32 71.6707 304.467 73.9641 302.76C76.3107 301.053 78.0174 298.6 79.0841 295.4H61.7241V285.32H91.4841V298.04C90.4707 301.453 88.7374 304.627 86.2841 307.56C83.8841 310.493 80.8174 312.867 77.0841 314.68C73.3507 316.493 69.1374 317.4 64.4441 317.4C58.8974 317.4 53.9374 316.2 49.5641 313.8C45.2441 311.347 41.8574 307.96 39.4041 303.64C37.0041 299.32 35.8041 294.387 35.8041 288.84C35.8041 283.293 37.0041 278.36 39.4041 274.04C41.8574 269.667 45.2441 266.28 49.5641 263.88C53.8841 261.427 58.8174 260.2 64.3641 260.2C71.0841 260.2 76.7374 261.827 81.3241 265.08C85.9641 268.333 89.0307 272.84 90.5241 278.6H75.4041ZM105.942 267.72C103.542 267.72 101.568 267.027 100.022 265.64C98.5282 264.2 97.7816 262.44 97.7816 260.36C97.7816 258.227 98.5282 256.467 100.022 255.08C101.568 253.64 103.542 252.92 105.942 252.92C108.288 252.92 110.208 253.64 111.702 255.08C113.248 256.467 114.022 258.227 114.022 260.36C114.022 262.44 113.248 264.2 111.702 265.64C110.208 267.027 108.288 267.72 105.942 267.72ZM112.742 272.36V317H99.0616V272.36H112.742ZM145.055 283.72H137.695V317H124.015V283.72H119.055V272.36H124.015V271.08C124.015 265.587 125.589 261.427 128.735 258.6C131.882 255.72 136.495 254.28 142.575 254.28C143.589 254.28 144.335 254.307 144.815 254.36V265.96C142.202 265.8 140.362 266.173 139.295 267.08C138.229 267.987 137.695 269.613 137.695 271.96V272.36H145.055V283.72ZM176.363 305.4V317H169.403C164.443 317 160.577 315.8 157.803 313.4C155.03 310.947 153.643 306.973 153.643 301.48V283.72H148.203V272.36H153.643V261.48H167.323V272.36H176.283V283.72H167.323V301.64C167.323 302.973 167.643 303.933 168.283 304.52C168.923 305.107 169.99 305.4 171.483 305.4H176.363ZM241.337 260.84V271.8H226.457V317H212.777V271.8H197.897V260.84H241.337ZM268.522 317.64C264.149 317.64 260.202 316.707 256.682 314.84C253.216 312.973 250.469 310.307 248.442 306.84C246.469 303.373 245.482 299.32 245.482 294.68C245.482 290.093 246.496 286.067 248.522 282.6C250.549 279.08 253.322 276.387 256.842 274.52C260.362 272.653 264.309 271.72 268.682 271.72C273.056 271.72 277.002 272.653 280.522 274.52C284.042 276.387 286.816 279.08 288.842 282.6C290.869 286.067 291.882 290.093 291.882 294.68C291.882 299.267 290.842 303.32 288.762 306.84C286.736 310.307 283.936 312.973 280.362 314.84C276.842 316.707 272.896 317.64 268.522 317.64ZM268.522 305.8C271.136 305.8 273.349 304.84 275.162 302.92C277.029 301 277.962 298.253 277.962 294.68C277.962 291.107 277.056 288.36 275.242 286.44C273.482 284.52 271.296 283.56 268.682 283.56C266.016 283.56 263.802 284.52 262.042 286.44C260.282 288.307 259.402 291.053 259.402 294.68C259.402 298.253 260.256 301 261.962 302.92C263.722 304.84 265.909 305.8 268.522 305.8ZM326.42 317L312.82 298.28V317H299.14V257.8H312.82V290.52L326.34 272.36H343.22L324.66 294.76L343.38 317H326.42ZM390.673 293.96C390.673 295.24 390.593 296.573 390.433 297.96H359.473C359.686 300.733 360.566 302.867 362.113 304.36C363.713 305.8 365.659 306.52 367.953 306.52C371.366 306.52 373.739 305.08 375.073 302.2H389.633C388.886 305.133 387.526 307.773 385.553 310.12C383.633 312.467 381.206 314.307 378.273 315.64C375.339 316.973 372.059 317.64 368.433 317.64C364.059 317.64 360.166 316.707 356.753 314.84C353.339 312.973 350.673 310.307 348.753 306.84C346.833 303.373 345.873 299.32 345.873 294.68C345.873 290.04 346.806 285.987 348.673 282.52C350.593 279.053 353.259 276.387 356.673 274.52C360.086 272.653 364.006 271.72 368.433 271.72C372.753 271.72 376.593 272.627 379.953 274.44C383.313 276.253 385.926 278.84 387.793 282.2C389.713 285.56 390.673 289.48 390.673 293.96ZM376.673 290.36C376.673 288.013 375.873 286.147 374.273 284.76C372.673 283.373 370.673 282.68 368.273 282.68C365.979 282.68 364.033 283.347 362.433 284.68C360.886 286.013 359.926 287.907 359.553 290.36H376.673ZM425.09 271.88C430.316 271.88 434.476 273.587 437.57 277C440.716 280.36 442.29 285 442.29 290.92V317H428.69V292.76C428.69 289.773 427.916 287.453 426.37 285.8C424.823 284.147 422.743 283.32 420.13 283.32C417.516 283.32 415.436 284.147 413.89 285.8C412.343 287.453 411.57 289.773 411.57 292.76V317H397.89V272.36H411.57V278.28C412.956 276.307 414.823 274.76 417.17 273.64C419.516 272.467 422.156 271.88 425.09 271.88Z" fill="#003049"/>
</svg>
