<svg width="320" height="686" viewBox="0 0 320 686" fill="none" xmlns="http://www.w3.org/2000/svg">
<g clip-path="url(#clip0_23731_361)">
<rect width="320" height="686" transform="translate(0 0.757812)" fill="#3E465B"/>
<path fill-rule="evenodd" clip-rule="evenodd" d="M141.747 622.257L142.047 622.579L142.353 622.895L142.665 623.206L142.983 623.514L143.306 623.816L143.636 624.115L143.973 624.409L144.316 624.7L144.665 624.987L145.022 625.27L145.385 625.55L145.755 625.827L146.133 626.1L146.518 626.371L146.91 626.64L147.31 626.905L147.718 627.169L148.134 627.43L148.558 627.69L148.991 627.947L149.431 628.204L149.881 628.459L150.339 628.712L150.806 628.965L151.282 629.217L151.767 629.469L152.261 629.72L152.765 629.972L153.279 630.223L153.802 630.475L154.336 630.728L154.879 630.981L155.432 631.236L155.996 631.492L156.571 631.75L157.156 632.009L157.752 632.271L158.358 632.536L158.976 632.803L159.605 633.073L160.246 633.347L160.898 633.624L161.561 633.906L162.236 634.192L162.924 634.482L163.623 634.778L164.334 635.079L165.057 635.386L165.793 635.699L166.541 636.019L167.302 636.346L168.075 636.68L168.861 637.022L169.66 637.372L170.471 637.731L171.296 638.099L172.133 638.477L172.983 638.865L173.846 639.263L174.722 639.673L175.611 640.094L176.514 640.528L177.429 640.974L178.357 641.434L179.297 641.908L180.251 642.396L181.217 642.9L182.195 643.419L183.187 643.954L184.19 644.507L185.205 645.077L186.232 645.666L187.271 646.274L188.321 646.902L189.382 647.55L190.454 648.219L191.537 648.911L192.629 649.625L193.731 650.363L194.842 651.125L195.961 651.912L197.089 652.725L198.224 653.565L199.367 654.432L200.515 655.328L201.669 656.252L202.828 657.207L203.991 658.193L205.157 659.21L206.325 660.259L207.495 661.341L208.665 662.458L209.835 663.609L211.002 664.796L212.167 666.019L213.327 667.28L214.482 668.578L215.63 669.914L216.769 671.29L217.899 672.705L219.018 674.161L220.124 675.657L221.215 677.195L222.291 678.775L223.348 680.397L224.386 682.062L225.402 683.77L226.394 685.521L227.361 687.315L228.301 689.153L229.21 691.035L230.089 692.959L230.933 694.927L231.741 696.938L232.511 698.992L233.241 701.088L233.928 703.225L234.57 705.403L235.165 707.622L235.71 709.88L236.203 712.175L236.643 714.509L237.026 716.877L237.35 719.281L237.614 721.717L237.815 724.184L237.952 726.681L238.021 729.205L238.022 731.755L237.952 734.328L237.81 736.922L237.593 739.534L237.302 742.162L236.933 744.804L236.486 747.455L235.959 750.115L235.353 752.778L234.665 755.443L233.895 758.107L233.042 760.765L232.107 763.414L231.089 766.052L229.988 768.675L228.805 771.278L227.539 773.86L226.191 776.416L224.762 778.942L223.254 781.435L221.667 783.892L220.002 786.31L218.262 788.684L216.448 791.011L214.562 793.289L212.606 795.514L210.582 797.683L208.493 799.793L206.342 801.841L204.131 803.824L201.863 805.741L199.541 807.588L197.168 809.363L194.749 811.064L192.284 812.69L189.78 814.239L187.237 815.708L184.662 817.098L182.055 818.406L179.423 819.632L176.767 820.775L174.092 821.835L171.4 822.811L168.697 823.702L165.984 824.51L163.266 825.234L160.546 825.875L157.828 826.433L155.114 826.909L152.407 827.305L149.711 827.62L147.029 827.857L144.363 828.016L141.717 828.099L139.092 828.109L136.491 828.045L133.917 827.912L131.371 827.709L128.856 827.439L126.374 827.105L123.927 826.709L121.515 826.252L119.141 825.737L116.806 825.167L114.511 824.542L112.258 823.867L110.047 823.143L107.879 822.372L105.754 821.558L103.675 820.701L101.64 819.806L99.6505 818.872L97.7067 817.905L95.8087 816.904L93.9566 815.873L92.1505 814.814L90.3901 813.728L88.6754 812.618L87.006 811.487L85.3818 810.335L83.8022 809.164L82.2668 807.978L80.7752 806.777L79.3268 805.563L77.921 804.337L76.5571 803.103L75.2345 801.86L73.9524 800.61L72.7102 799.355L71.5069 798.097L70.3418 796.836L69.2142 795.573L68.1231 794.311L67.0677 793.049L66.0472 791.79L65.0607 790.533L64.1073 789.281L63.186 788.033L62.2962 786.791L61.4368 785.555L60.6069 784.327L59.8058 783.106L59.0324 781.894L58.2861 780.691L57.5658 779.498L56.8708 778.315L56.2003 777.143L55.5533 775.981L54.9291 774.831L54.3269 773.693L53.7458 772.567L53.1852 771.454L52.6443 770.353L52.1223 769.265L51.6184 768.19L51.132 767.129L50.6624 766.081L50.2089 765.046L49.7708 764.025L49.3475 763.018L48.9383 762.025L48.5426 761.046L48.1599 760.081L47.7895 759.13L47.4308 758.192L47.0833 757.269L46.7464 756.359L46.4197 755.464L46.1026 754.582L45.7946 753.714L45.4952 752.86L45.204 752.019L44.9204 751.192L44.6441 750.378L44.3747 749.577L44.1116 748.79L43.8545 748.015L43.603 747.254L43.3566 746.506L43.1152 745.77L42.8782 745.046L42.6453 744.335L42.4161 743.637L42.1904 742.95L41.9679 742.276L41.7481 741.613L41.5308 740.961L41.3158 740.322L41.1026 739.693L40.8911 739.076L40.6809 738.469L40.4718 737.874L40.2636 737.289L40.0559 736.714L39.8486 736.15L39.6414 735.596L39.434 735.052L39.2263 734.518L39.018 733.993L38.8089 733.478L38.5987 732.972L38.3874 732.475L38.1746 731.987L37.9603 731.508L37.7441 731.038L37.5259 730.576L37.3054 730.122L37.0827 729.677L36.8573 729.239L36.6293 728.809L36.3983 728.387L36.1642 727.972L35.9269 727.565L35.6861 727.165L35.4418 726.772L35.1937 726.385L34.9418 726.005L34.6857 725.632L34.4254 725.265L34.1608 724.905L33.8916 724.55L33.6177 724.201L33.339 723.858L33.0553 723.52L32.7665 723.188L32.4723 722.861L32.1728 722.539L31.8676 722.222L31.5567 721.91L31.2399 721.602L30.917 721.298L30.588 720.999L30.2527 720.704L29.9109 720.413L29.5624 720.126L29.2072 719.842L28.8451 719.561L28.4759 719.284L28.0995 719.01L27.7157 718.738L27.3244 718.47L26.9255 718.203L26.5188 717.94L26.1041 717.678L25.6813 717.418L25.2503 717.16L24.8108 716.904L24.3628 716.649L23.9062 716.395L23.4406 716.142L22.9661 715.89L22.4824 715.638L21.9895 715.386L21.487 715.135L20.975 714.884L20.4533 714.632L19.9216 714.379L19.3799 714.126L18.828 713.871L18.2658 713.616L17.6931 713.358L17.1097 713.099L16.5156 712.837L15.9106 712.573L15.2945 712.307L14.6672 712.037L14.0286 711.764L13.3785 711.487L12.7169 711.206L12.0435 710.921L11.3582 710.631L10.6611 710.336L9.95176 710.036L9.2303 709.73L8.49654 709.418L7.75036 709.099L6.99169 708.773L6.22045 708.441L5.43654 708.1L4.6399 707.751L3.83046 707.394L3.00815 707.027L2.17294 706.651L1.3248 706.264L0.463697 705.868L-0.410391 705.46L-1.29745 705.04L-2.19749 704.609L-3.11045 704.164L-4.03633 703.707L-4.97502 703.235L-5.92648 702.749L-6.8906 702.248L-7.86728 701.732L-8.85636 701.199L-9.85771 700.649L-10.8711 700.082L-11.8964 699.496L-12.9334 698.891L-13.9817 698.266L-15.0411 697.622L-16.1114 696.956L-17.192 696.268L-18.2827 695.557L-19.3831 694.823L-20.4927 694.065L-21.611 693.282L-22.7375 692.473L-23.8716 691.637L-25.0128 690.774L-26.1603 689.883L-27.3135 688.963L-28.4717 688.014L-29.634 687.033L-30.7997 686.021L-31.9678 684.977L-33.1373 683.9L-34.3074 682.789L-35.4769 681.643L-36.6448 680.462L-37.8099 679.245L-38.9709 677.99L-40.1267 676.698L-41.2758 675.368L-42.4169 673.999L-43.5485 672.59L-44.6691 671.141L-45.7771 669.651L-46.871 668.119L-47.949 666.546L-49.0093 664.931L-50.0502 663.273L-51.0697 661.572L-52.0661 659.827L-53.0373 658.04L-53.9813 656.209L-54.896 654.335L-55.7794 652.417L-56.6293 650.456L-57.4435 648.452L-58.2199 646.405L-58.9561 644.316L-59.6501 642.185L-60.2993 640.013L-60.9017 637.801L-61.455 635.549L-61.9568 633.259L-62.4049 630.932L-62.797 628.569L-63.1311 626.171L-63.4048 623.74L-63.6161 621.277L-63.7628 618.785L-63.8431 616.265L-63.8549 613.719L-63.7963 611.15L-63.6657 608.559L-63.4613 605.95L-63.1817 603.324L-62.8253 600.684L-62.3908 598.034L-61.8772 595.376L-61.2833 592.713L-60.6082 590.048L-59.8514 587.384L-59.0122 584.725L-58.0903 582.074L-57.0854 579.434L-55.9976 576.808L-54.8271 574.201L-53.5741 571.616L-52.2394 569.056L-50.8237 566.525L-49.3279 564.026L-47.7532 561.563L-46.1009 559.139L-44.3727 556.758L-42.5701 554.423L-40.6953 552.137L-38.7502 549.903L-36.7371 547.725L-34.6585 545.606L-32.5169 543.548L-30.3152 541.554L-28.0561 539.627L-25.7427 537.768L-23.378 535.982L-20.9654 534.268L-18.5081 532.63L-16.0096 531.069L-13.4731 529.587L-10.9024 528.185L-8.30085 526.863L-5.6721 525.624L-3.01973 524.468L-0.347288 523.395L2.34161 522.406L5.04346 521.501L7.75475 520.68L10.472 519.942L13.1918 519.288L15.9109 518.717L18.626 518.228L21.334 517.819L24.0318 517.492L26.7163 517.242L29.3849 517.071L32.0348 516.976L34.6633 516.955L37.2681 517.006L39.8467 517.129L42.3969 517.321L44.9167 517.58L47.4041 517.904L49.8574 518.29L52.2748 518.738L54.6548 519.244L56.9961 519.806L59.2974 520.421L61.5575 521.089L63.7755 521.805L65.9505 522.568L68.0818 523.376L70.1686 524.226L72.2106 525.116L74.2072 526.043L76.1583 527.006L78.0636 528.001L79.923 529.028L81.7365 530.083L83.5041 531.164L85.2261 532.27L86.9027 533.398L88.5341 534.547L90.1207 535.715L91.6631 536.899L93.1616 538.098L94.6169 539.31L96.0294 540.533L97.4 541.767L98.7291 543.009L100.018 544.257L101.266 545.511L102.476 546.769L103.647 548.03L104.78 549.292L105.877 550.555L106.938 551.817L107.964 553.077L108.956 554.334L109.915 555.587L110.841 556.835L111.736 558.078L112.6 559.315L113.434 560.545L114.24 561.766L115.018 562.98L115.768 564.184L116.493 565.379L117.192 566.564L117.866 567.738L118.517 568.901L119.145 570.053L119.75 571.193L120.335 572.321L120.898 573.436L121.442 574.539L121.967 575.629L122.474 576.706L122.963 577.77L123.435 578.82L123.891 579.857L124.332 580.88L124.758 581.889L125.169 582.884L125.567 583.865L125.952 584.833L126.324 585.786L126.684 586.726L127.034 587.652L127.372 588.563L127.7 589.461L128.019 590.345L128.328 591.215L128.629 592.072L128.922 592.915L129.206 593.744L129.484 594.56L129.754 595.363L130.018 596.152L130.277 596.929L130.529 597.692L130.776 598.443L131.018 599.181L131.256 599.906L131.489 600.619L131.719 601.319L131.945 602.008L132.168 602.685L132.389 603.349L132.606 604.002L132.822 604.644L133.035 605.274L133.247 605.893L133.457 606.502L133.666 607.099L133.875 607.686L134.083 608.262L134.29 608.828L134.497 609.383L134.704 609.929L134.912 610.465L135.12 610.991L135.329 611.508L135.539 612.015L135.75 612.513L135.963 613.002L136.177 613.483L136.393 613.955L136.611 614.418L136.831 614.873L137.053 615.32L137.278 615.759L137.506 616.19L137.736 616.613L137.97 617.029L138.207 617.437L138.447 617.839L138.691 618.233L138.938 618.62L139.189 619.001L139.445 619.375L139.704 619.743L139.968 620.105L140.237 620.461L140.51 620.811L140.788 621.155L141.071 621.493L141.359 621.826L141.652 622.154L141.747 622.257Z" fill="#CFC0E9"/>
<path fill-rule="evenodd" clip-rule="evenodd" d="M413.88 701.314L414.087 702.471L414.708 703.641L415.745 704.836L417.2 706.07L419.077 707.354L421.378 708.703L424.104 710.129L427.251 711.646L430.813 713.265L434.773 714.998L439.105 716.855L443.767 718.843L448.703 720.964L453.831 723.216L459.048 725.591L464.222 728.071L469.2 730.629L473.804 733.227L477.847 735.819L481.141 738.35L483.512 740.761L484.822 742.992L484.98 744.991L483.958 746.713L481.791 748.132L478.573 749.235L474.451 750.029L469.602 750.537L464.223 750.792L458.506 750.837L452.632 750.717L446.76 750.479L441.021 750.167L435.519 749.822L430.333 749.48L425.521 749.172L421.122 748.924L417.16 748.761L413.649 748.703L410.598 748.767L408.01 748.972L405.889 749.336L404.237 749.874L403.061 750.609L402.371 751.561L402.172 752.752L402.44 754.188L403.154 755.875L404.293 757.821L405.843 760.035L407.788 762.525L410.112 765.299L412.794 768.361L415.808 771.712L419.116 775.344L422.671 779.242L426.408 783.378L430.247 787.708L434.084 792.171L437.798 796.688L441.251 801.16L444.293 805.47L446.768 809.492L448.534 813.094L449.467 816.154L449.483 818.568L448.541 820.263L446.655 821.203L443.889 821.394L440.349 820.883L436.177 819.747L431.527 818.091L426.561 816.028L421.429 813.676L416.266 811.149L411.183 808.546L406.27 805.956L401.595 803.45L397.203 801.086L393.127 798.909L389.382 796.953L385.976 795.242L382.907 793.793L380.17 792.621L377.757 791.735L375.655 791.14L373.853 790.845L372.339 790.854L371.101 791.174L370.13 791.811L369.413 792.772L368.943 794.068L368.71 795.706L368.707 797.698L368.924 800.053L369.353 802.781L369.983 805.892L370.803 809.388L371.796 813.272L372.944 817.535L374.219 822.161L375.59 827.117L377.016 832.357L378.446 837.81L379.82 843.384L381.069 848.959L382.115 854.393L382.876 859.519L383.274 864.159L383.236 868.133L382.705 871.274L381.646 873.446L380.054 874.555L377.949 874.567L375.382 873.506L372.427 871.453L369.171 868.534L365.711 864.911L362.138 860.758L358.54 856.252L354.989 851.559L351.543 846.828L348.248 842.182L345.133 837.723L342.217 833.53L339.508 829.662L337.009 826.164L334.715 823.066L332.619 820.391L330.71 818.155L328.977 816.372L327.408 815.055L325.992 814.218L324.717 813.879L323.572 814.062L322.541 814.775L321.606 816.002L320.747 817.73L319.947 819.951L319.189 822.658L318.458 825.844L317.736 829.5L317.009 833.612L316.258 838.155L315.466 843.095L314.616 848.379L313.69 853.933L312.67 859.662L311.541 865.441L310.292 871.118L308.914 876.52L307.405 881.451L305.772 885.713L304.029 889.116L302.197 891.494L300.306 892.728L298.39 892.758L296.484 891.586L294.623 889.282L292.837 885.971L291.149 881.82L289.575 877.018L288.123 871.762L286.793 866.24L285.579 860.622L284.471 855.054L283.457 849.651L282.52 844.506L281.646 839.686L280.818 835.238L280.02 831.192L279.238 827.567L278.457 824.371L277.664 821.606L276.846 819.271L275.99 817.361L275.085 815.869L274.118 814.792L273.078 814.122L271.952 813.857L270.727 813.994L269.393 814.53L267.934 815.466L266.339 816.8L264.594 818.534L262.686 820.666L260.601 823.191L258.329 826.104L255.861 829.389L253.191 833.025L250.317 836.977L247.246 841.197L243.992 845.619L240.581 850.154L237.051 854.691L233.455 859.098L229.862 863.218L226.353 866.884L223.02 869.921L219.96 872.164L217.267 873.473L215.022 873.744L213.288 872.93L212.098 871.039L211.46 868.14L211.347 864.351L211.71 859.828L212.478 854.749L213.572 849.296L214.905 843.644L216.393 837.947L217.961 832.338L219.54 826.923L221.072 821.782L222.509 816.974L223.812 812.54L224.949 808.504L225.895 804.881L226.629 801.677L227.132 798.893L227.385 796.529L227.373 794.583L227.075 793.056L226.469 791.951L225.53 791.273L224.247 791.01L222.621 791.136L220.649 791.629L218.327 792.471L215.65 793.645L212.614 795.134L209.215 796.92L205.458 798.978L201.351 801.28L196.915 803.787L192.182 806.45L187.204 809.205L182.049 811.976L176.813 814.67L171.61 817.18L166.577 819.387L161.869 821.171L157.646 822.413L154.064 823.009L151.258 822.882L149.331 821.989L148.34 820.329L148.294 817.941L149.146 814.904L150.808 811.326L153.158 807.331L156.053 803.052L159.342 798.613L162.882 794.131L166.539 789.701L170.198 785.401L173.764 781.29L177.16 777.409L180.328 773.784L183.225 770.429L185.819 767.35L188.09 764.544L190.022 762.005L191.607 759.723L192.84 757.685L193.716 755.881L194.232 754.295L194.385 752.917L194.172 751.732L193.588 750.73L192.627 749.9L191.282 749.229L189.545 748.709L187.409 748.328L184.866 748.076L181.907 747.941L178.53 747.912L174.734 747.974L170.526 748.111L165.922 748.304L160.953 748.53L155.663 748.761L150.12 748.968L144.415 749.113L138.663 749.157L133.011 749.058L127.626 748.772L122.696 748.26L118.414 747.485L114.967 746.423L112.516 745.063L111.18 743.41L111.021 741.485L112.038 739.325L114.167 736.979L117.287 734.503L121.235 731.954L125.827 729.388L130.866 726.854L136.168 724.391L141.564 722.028L146.907 719.785L152.079 717.674L156.987 715.698L161.56 713.854L165.746 712.136L169.51 710.535L172.827 709.039L175.679 707.636L178.056 706.31L179.948 705.048L181.342 703.835L182.228 702.657L182.587 701.498L182.401 700.341L181.681 699.17L180.446 697.97L178.712 696.726L176.489 695.422L173.786 694.045L170.616 692.579L166.993 691.013L162.938 689.334L158.483 687.531L153.675 685.598L148.578 683.529L143.278 681.328L137.884 679.001L132.535 676.567L127.392 674.052L122.637 671.491L118.463 668.932L115.06 666.426L112.6 664.032L111.219 661.807L111 659.802L111.965 658.06L114.072 656.605L117.217 655.449L121.253 654.585L125.997 653.992L131.258 653.638L136.845 653.484L142.581 653.488L148.315 653.605L153.921 653.796L159.3 654.023L164.377 654.254L169.101 654.46L173.438 654.617L177.366 654.705L180.877 654.706L183.969 654.607L186.644 654.393L188.909 654.055L190.772 653.58L192.24 652.958L193.323 652.18L194.026 651.234L194.357 650.109L194.32 648.793L193.919 647.275L193.158 645.542L192.039 643.58L190.565 641.377L188.742 638.921L186.578 636.201L184.085 633.209L181.282 629.942L178.196 626.402L174.867 622.6L171.348 618.559L167.709 614.314L164.04 609.918L160.449 605.442L157.065 600.978L154.028 596.635L151.489 592.535L149.593 588.81L148.471 585.588L148.224 582.983L148.912 581.085L150.545 579.946L153.08 579.577L156.429 579.95L160.464 580.997L165.035 582.62L169.981 584.706L175.146 587.133L180.385 589.78L185.577 592.537L190.62 595.307L195.438 598.007L199.973 600.569L204.187 602.941L208.057 605.08L211.571 606.955L214.722 608.541L217.513 609.818L219.948 610.768L222.03 611.374L223.766 611.619L225.158 611.482L226.207 610.939L226.916 609.97L227.31 608.576L227.411 606.764L227.24 604.533L226.815 601.883L226.153 598.812L225.272 595.322L224.193 591.417L222.94 587.108L221.542 582.415L220.036 577.375L218.466 572.04L216.888 566.482L215.366 560.8L213.974 555.118L212.795 549.583L211.914 544.366L211.414 539.646L211.369 535.605L211.836 532.407L212.849 530.185L214.412 529.024L216.5 528.952L219.059 529.939L222.012 531.898L225.268 534.7L228.731 538.184L232.307 542.178L235.91 546.511L239.467 551.023L242.921 555.572L246.229 560.04L249.36 564.333L252.297 568.376L255.033 572.117L257.565 575.517L259.898 578.55L262.041 581.2L264.005 583.457L265.8 585.318L267.442 586.78L268.942 587.843L270.315 588.506L271.573 588.77L272.729 588.634L273.795 588.093L274.784 587.146L275.708 585.787L276.578 584.011L277.407 581.811L278.206 579.184L278.99 576.125L279.77 572.636L280.561 568.723L281.378 564.401L282.236 559.695L283.151 554.647L284.139 549.318L285.215 543.79L286.394 538.174L287.686 532.604L289.099 527.244L290.635 522.276L292.288 517.896L294.045 514.298L295.885 511.657L297.78 510.115L299.697 509.758L301.6 510.612L303.454 512.637L305.228 515.728L306.898 519.736L308.447 524.476L309.867 529.75L311.157 535.359L312.323 541.124L313.376 546.883L314.33 552.505L315.203 557.884L316.011 562.94L316.773 567.614L317.506 571.866L318.227 575.669L318.954 579.006L319.702 581.867L320.486 584.243L321.325 586.129L322.234 587.517L323.232 588.396L324.339 588.748L325.571 588.573L326.941 587.892L328.46 586.726L330.139 585.09L331.991 582.997L334.026 580.46L336.256 577.495L338.69 574.121L341.331 570.368L344.182 566.273L347.235 561.891L350.476 557.294L353.877 552.577L357.4 547.857L360.991 543.275L364.58 538.991L368.087 535.179L371.418 532.018L374.479 529.673L377.178 528.285L379.437 527.949L381.197 528.71L382.426 530.551L383.122 533.396L383.312 537.122L383.046 541.569L382.392 546.56L381.428 551.914L380.235 557.461L378.893 563.05L377.474 568.553L376.041 573.869L374.647 578.922L373.337 583.657L372.146 588.038L371.101 592.044L370.224 595.664L369.532 598.897L369.038 601.746L368.752 604.22L368.685 606.326L368.843 608.076L369.237 609.479L369.874 610.546L370.763 611.286L371.915 611.706L373.34 611.813L375.049 611.614L377.054 611.114L379.367 610.32L382 609.238L384.962 607.876L388.26 606.247L391.898 604.367L395.87 602.257L400.163 599.948L404.753 597.482L409.596 594.912L414.633 592.304L419.782 589.742L424.938 587.323L429.973 585.155L434.74 583.356L439.082 582.043L442.839 581.323L445.865 581.284L448.041 581.983L449.287 583.439L449.575 585.63L448.927 588.494L447.414 591.937L445.15 595.839L442.272 600.071L438.933 604.505L435.286 609.019L431.474 613.509L427.625 617.889L423.845 622.092L420.224 626.069L416.831 629.788L413.72 633.23L410.929 636.384L408.488 639.25L406.42 641.83L404.743 644.131L403.471 646.161L402.62 647.93L402.208 649.445L402.255 650.713L402.788 651.74L403.81 652.541L405.311 653.14L407.284 653.557L409.723 653.811L412.627 653.919L415.992 653.897L419.811 653.765L424.074 653.542L428.758 653.251L433.829 652.916L439.238 652.568L444.912 652.242L450.755 651.976L456.644 651.813L462.43 651.801L467.937 651.984L472.976 652.407L477.35 653.107L480.874 654.11L483.389 655.429L484.783 657.056L485 658.971L484.05 661.134L482.003 663.494L478.986 665.993L475.162 668.572L470.716 671.174L465.837 673.749L460.707 676.257L455.489 678.667L450.32 680.96L445.313 683.124L440.556 685.154L436.114 687.052L432.032 688.823L428.342 690.478L425.061 692.026L422.2 693.479L419.764 694.851L417.752 696.155L416.163 697.403L414.993 698.609L414.24 699.786L413.901 700.946L413.88 701.314Z" fill="#6336B3"/>
<path fill-rule="evenodd" clip-rule="evenodd" d="M332.092 -30.7418L332.094 -30.1062L332.098 -29.4704L332.106 -28.8342L332.116 -28.1973L332.129 -27.5595L332.144 -26.9208L332.162 -26.2808L332.181 -25.6394L332.203 -24.9963L332.227 -24.3515L332.252 -23.7047L332.279 -23.0558L332.307 -22.4046L332.337 -21.751L332.368 -21.0947L332.399 -20.4357L332.432 -19.7738L332.465 -19.1089L332.498 -18.4408L332.532 -17.7693L332.566 -17.0945L332.6 -16.4161L332.634 -15.734L332.667 -15.0481L332.7 -14.3584L332.732 -13.6646L332.763 -12.9668L332.793 -12.2647L332.822 -11.5584L332.849 -10.8478L332.875 -10.1327L332.898 -9.41311L332.92 -8.68893L332.94 -7.96014L332.957 -7.22663L332.972 -6.4884L332.983 -5.74538L332.992 -4.99753L332.998 -4.24483L333 -3.48724L332.999 -2.72475L332.993 -1.95732L332.984 -1.18498L332.971 -0.4077L332.953 0.374496L332.93 1.16162L332.902 1.95364L332.87 2.75053L332.832 3.55226L332.788 4.35881L332.739 5.1701L332.684 5.98611L332.622 6.80675L332.554 7.63196L332.479 8.46167L332.398 9.29581L332.309 10.1343L332.213 10.9769L332.11 11.8237L331.998 12.6745L331.879 13.5292L331.752 14.3876L331.616 15.2496L331.471 16.1151L331.317 16.9839L331.154 17.8558L330.982 18.7307L330.801 19.6083L330.609 20.4885L330.408 21.3712L330.196 22.256L329.974 23.1427L329.742 24.0312L329.499 24.9213L329.244 25.8125L328.979 26.7048L328.702 27.5979L328.414 28.4914L328.114 29.3852L327.802 30.2789L327.478 31.1722L327.142 32.0649L326.793 32.9566L326.432 33.8471L326.059 34.736L325.672 35.623L325.273 36.5077L324.861 37.3898L324.435 38.269L323.997 39.1449L323.545 40.0172L323.08 40.8854L322.601 41.7493L322.109 42.6084L321.603 43.4624L321.083 44.3109L320.55 45.1536L320.003 45.9899L319.443 46.8196L318.869 47.6422L318.281 48.4573L317.679 49.2646L317.064 50.0636L316.435 50.854L315.792 51.6353L315.136 52.4072L314.467 53.1691L313.784 53.9209L313.088 54.662L312.379 55.392L311.657 56.1105L310.922 56.8173L310.174 57.5118L309.414 58.1937L308.641 58.8626L307.856 59.5182L307.059 60.16L306.25 60.7877L305.429 61.401L304.597 61.9995L303.754 62.5828L302.899 63.1507L302.034 63.7027L301.159 64.2386L300.274 64.7581L299.378 65.2609L298.473 65.7467L297.559 66.2151L296.636 66.666L295.704 67.0991L294.764 67.5141L293.816 67.9108L292.861 68.289L291.898 68.6484L290.928 68.989L289.952 69.3104L288.969 69.6125L287.981 69.8952L286.987 70.1583L285.988 70.4017L284.985 70.6253L283.977 70.829L282.966 71.0126L281.951 71.1762L280.933 71.3196L279.913 71.4429L278.89 71.5459L277.865 71.6287L276.839 71.6913L275.812 71.7336L274.784 71.7558L273.756 71.7578L272.729 71.7398L271.701 71.7017L270.675 71.6437L269.65 71.5658L268.627 71.4683L267.606 71.3511L266.588 71.2145L265.573 71.0585L264.56 70.8834L263.552 70.6894L262.547 70.4765L261.547 70.245L260.552 69.9952L259.561 69.7272L258.576 69.4412L257.597 69.1375L256.623 68.8164L255.656 68.4781L254.696 68.1229L253.743 67.751L252.796 67.3627L251.858 66.9583L250.926 66.5381L250.003 66.1025L249.089 65.6517L248.182 65.186L247.285 64.7057L246.396 64.2113L245.517 63.7029L244.647 63.181L243.786 62.6458L242.935 62.0978L242.094 61.5372L241.263 60.9645L240.442 60.3798L239.632 59.7837L238.832 59.1764L238.042 58.5583L237.263 57.9297L236.495 57.291L235.738 56.6426L234.992 55.9847L234.257 55.3177L233.533 54.6421L232.82 53.958L232.118 53.2659L231.428 52.566L230.748 51.8588L230.08 51.1446L229.424 50.4236L228.778 49.6962L228.144 48.9628L227.521 48.2236L226.91 47.4789L226.309 46.7291L225.72 45.9745L225.142 45.2153L224.575 44.4519L224.019 43.6845L223.475 42.9135L222.941 42.139L222.418 41.3614L221.905 40.5809L221.404 39.7979L220.913 39.0124L220.432 38.2249L219.962 37.4355L219.503 36.6444L219.053 35.852L218.614 35.0584L218.185 34.2638L217.765 33.4684L217.356 32.6725L216.956 31.8762L216.566 31.0797L216.185 30.2833L215.813 29.487L215.451 28.6911L215.098 27.8957L214.753 27.101L214.418 26.3072L214.091 25.5143L213.772 24.7226L213.462 23.9321L213.16 23.143L212.867 22.3553L212.581 21.5694L212.303 20.7851L212.032 20.0026L211.77 19.2222L211.514 18.4437L211.266 17.6673L211.025 16.8932L210.791 16.1213L210.564 15.3517L210.343 14.5846L210.129 13.8199L209.922 13.0578L209.721 12.2983L209.526 11.5413L209.337 10.7871L209.153 10.0356L208.976 9.28674L208.804 8.54071L208.638 7.79747L208.477 7.05707L208.321 6.31947L208.171 5.58475L208.025 4.85286L207.885 4.12386L207.749 3.39769L207.617 2.67439L207.491 1.95395L207.368 1.23636L207.25 0.521591L207.136 -0.190338L207.027 -0.899475L206.921 -1.60583L206.819 -2.30943L206.721 -3.01031L206.626 -3.70848L206.535 -4.40398L206.448 -5.09685L206.364 -5.78712L206.283 -6.47482L206.206 -7.16003L206.131 -7.84274L206.06 -8.52305L205.992 -9.20097L205.926 -9.87655L205.863 -10.5499L205.803 -11.2209L205.746 -11.8899L205.691 -12.5567L205.639 -13.2214L205.589 -13.8842L205.542 -14.545L205.497 -15.204L205.454 -15.8611L205.414 -16.5165L205.375 -17.1703L205.339 -17.8224L205.305 -18.473L205.273 -19.1222L205.242 -19.7699L205.214 -20.4163L205.188 -21.0615L205.163 -21.7055L205.14 -22.3484L205.12 -22.9903L205.1 -23.6312L205.083 -24.2712L205.067 -24.9105L205.053 -25.549L205.041 -26.1869L205.03 -26.8242L205.021 -27.461L205.014 -28.0974L205.008 -28.7335L205.004 -29.3693L205.001 -30.005L205 -30.6406L205.001 -31.2761L205.003 -31.9117L205.006 -32.5475L205.012 -33.1835L205.019 -33.8198L205.027 -34.4565L205.037 -35.0936L205.049 -35.7313L205.063 -36.3696L205.078 -37.0086L205.095 -37.6484L205.113 -38.289L205.134 -38.9306L205.156 -39.5732L205.18 -40.2168L205.205 -40.8616L205.233 -41.5076L205.263 -42.1549L205.294 -42.8036L205.328 -43.4537L205.363 -44.1054L205.401 -44.7586L205.441 -45.4135L205.483 -46.0701L205.527 -46.7285L205.574 -47.3887L205.623 -48.0508L205.674 -48.7149L205.728 -49.3811L205.785 -50.0493L205.844 -50.7197L205.906 -51.3923L205.97 -52.0672L206.038 -52.7443L206.108 -53.4239L206.182 -54.1058L206.258 -54.7902L206.338 -55.4771L206.421 -56.1666L206.507 -56.8586L206.597 -57.5533L206.69 -58.2506L206.787 -58.9506L206.888 -59.6533L206.993 -60.3588L207.101 -61.067L207.214 -61.7781L207.33 -62.4919L207.451 -63.2086L207.577 -63.9282L207.706 -64.6506L207.841 -65.3758L207.98 -66.1039L208.124 -66.8349L208.273 -67.5687L208.427 -68.3054L208.586 -69.0449L208.751 -69.7872L208.921 -70.5324L209.096 -71.2803L209.278 -72.031L209.465 -72.7844L209.658 -73.5404L209.857 -74.2992L210.063 -75.0605L210.275 -75.8243L210.493 -76.5907L210.718 -77.3595L210.95 -78.1306L211.189 -78.9041L211.434 -79.6797L211.687 -80.4575L211.948 -81.2374L212.216 -82.0192L212.491 -82.8029L212.775 -83.5884L213.066 -84.3755L213.365 -85.1641L213.673 -85.9542L213.988 -86.7456L214.313 -87.5381L214.645 -88.3317L214.987 -89.1261L215.338 -89.9213L215.697 -90.717L216.066 -91.5132L216.443 -92.3096L216.831 -93.1061L217.228 -93.9024L217.634 -94.6985L218.05 -95.494L218.476 -96.2889L218.912 -97.0829L219.358 -97.8757L219.815 -98.6673L220.281 -99.4572L220.759 -100.245L221.246 -101.031L221.744 -101.815L222.253 -102.597L222.773 -103.375L223.303 -104.151L223.845 -104.923L224.397 -105.691L224.96 -106.456L225.535 -107.217L226.121 -107.973L226.717 -108.724L227.325 -109.471L227.945 -110.211L228.575 -110.947L229.217 -111.676L229.87 -112.399L230.534 -113.116L231.21 -113.825L231.897 -114.527L232.595 -115.222L233.305 -115.909L234.025 -116.587L234.757 -117.257L235.499 -117.918L236.253 -118.569L237.018 -119.211L237.793 -119.843L238.579 -120.464L239.376 -121.075L240.183 -121.675L241 -122.263L241.828 -122.84L242.666 -123.404L243.514 -123.956L244.371 -124.496L245.239 -125.022L246.115 -125.534L247.001 -126.033L247.896 -126.518L248.799 -126.988L249.711 -127.444L250.632 -127.885L251.56 -128.31L252.496 -128.719L253.44 -129.113L254.392 -129.49L255.35 -129.85L256.315 -130.194L257.286 -130.521L258.264 -130.83L259.247 -131.122L260.236 -131.395L261.229 -131.651L262.228 -131.888L263.231 -132.107L264.239 -132.307L265.25 -132.488L266.264 -132.65L267.282 -132.793L268.302 -132.917L269.324 -133.02L270.349 -133.105L271.374 -133.169L272.401 -133.213L273.429 -133.238L274.457 -133.242L275.485 -133.226L276.512 -133.191L277.538 -133.134L278.564 -133.058L279.587 -132.961L280.608 -132.845L281.627 -132.708L282.643 -132.55L283.656 -132.373L284.665 -132.176L285.669 -131.959L286.67 -131.722L287.665 -131.465L288.655 -131.188L289.639 -130.892L290.618 -130.577L291.59 -130.243L292.555 -129.889L293.513 -129.517L294.463 -129.126L295.406 -128.717L296.34 -128.289L297.266 -127.844L298.183 -127.381L299.091 -126.901L299.989 -126.404L300.878 -125.889L301.757 -125.359L302.625 -124.812L303.483 -124.249L304.329 -123.67L305.165 -123.077L305.989 -122.468L306.802 -121.845L307.603 -121.208L308.392 -120.556L309.169 -119.892L309.933 -119.214L310.685 -118.523L311.424 -117.821L312.151 -117.106L312.864 -116.379L313.564 -115.642L314.251 -114.893L314.925 -114.135L315.585 -113.366L316.232 -112.587L316.865 -111.8L317.485 -111.004L318.091 -110.199L318.683 -109.386L319.261 -108.566L319.826 -107.738L320.378 -106.904L320.915 -106.064L321.439 -105.217L321.949 -104.365L322.446 -103.507L322.929 -102.645L323.398 -101.778L323.854 -100.907L324.297 -100.032L324.727 -99.1537L325.143 -98.2725L325.547 -97.3886L325.937 -96.5023L326.315 -95.614L326.68 -94.724L327.032 -93.8327L327.372 -92.9402L327.7 -92.0471L328.016 -91.1535L328.319 -90.2597L328.612 -89.366L328.892 -88.4728L329.161 -87.5802L329.419 -86.6886L329.666 -85.7982L329.902 -84.9091L330.127 -84.0218L330.342 -83.1363L330.546 -82.253L330.741 -81.372L330.926 -80.4935L331.101 -79.6177L331.266 -78.7448L331.423 -77.875L331.57 -77.0085L331.709 -76.1454L331.839 -75.2858L331.961 -74.4299L332.075 -73.5779L332.181 -72.7298L332.28 -71.8858L332.371 -71.046L332.454 -70.2105L332.531 -69.3793L332.601 -68.5527L332.665 -67.7306L332.722 -66.9131L332.773 -66.1003L332.818 -65.2922L332.858 -64.489L332.893 -63.6905L332.922 -62.8969L332.946 -62.1083L332.965 -61.3245L332.98 -60.5456L332.991 -59.7717L332.997 -59.0027L333 -58.2387L332.999 -57.4795L332.994 -56.7253L332.987 -55.9759L332.976 -55.2313L332.962 -54.4916L332.946 -53.7566L332.927 -53.0263L332.906 -52.3006L332.882 -51.5796L332.857 -50.8631L332.83 -50.151L332.802 -49.4433L332.772 -48.7399L332.742 -48.0408L332.71 -47.3457L332.677 -46.6547L332.644 -45.9676L332.611 -45.2843L332.577 -44.6048L332.543 -43.9288L332.509 -43.2563L332.475 -42.5872L332.442 -41.9212L332.41 -41.2584L332.378 -40.5984L332.347 -39.9413L332.317 -39.2869L332.288 -38.6349L332.261 -37.9853L332.235 -37.3379L332.21 -36.6924L332.188 -36.0489L332.168 -35.4069L332.149 -34.7665L332.133 -34.1274L332.12 -33.4893L332.109 -32.8522L332.1 -32.2158L332.095 -31.5799L332.092 -30.9442L332.092 -30.7418Z" fill="#CFC0E9"/>
<path fill-rule="evenodd" clip-rule="evenodd" d="M21.5352 81.2659L21.3752 81.4819L21.2183 81.7004L21.0646 81.9216L20.9137 82.1455L20.7658 82.3722L20.6207 82.6019L20.4783 82.8347L20.3385 83.0706L20.2013 83.3098L20.0666 83.5524L19.9342 83.7985L19.8042 84.0482L19.6763 84.3016L19.5506 84.5588L19.4269 84.8199L19.3051 85.0851L19.1851 85.3544L19.0669 85.6279L18.9504 85.9059L18.8354 86.1883L18.7218 86.4753L18.6096 86.767L18.4986 87.0635L18.3888 87.365L18.28 87.6715L18.1721 87.9831L18.065 88.3001L17.9586 88.6224L17.8528 88.9503L17.7474 89.2837L17.6424 89.623L17.5375 89.9681L17.4327 90.3191L17.3278 90.6763L17.2228 91.0397L17.1173 91.4095L17.0114 91.7857L16.9048 92.1685L16.7974 92.558L16.6891 92.9544L16.5796 93.3577L16.4688 93.768L16.3566 94.1856L16.2427 94.6104L16.127 95.0427L16.0092 95.4825L15.8892 95.93L15.7669 96.3852L15.6419 96.8483L15.514 97.3195L15.3831 97.7987L15.2489 98.2861L15.1111 98.7819L14.9696 99.2861L14.8241 99.7988L14.6743 100.32L14.52 100.85L14.3608 101.389L14.1966 101.937L14.027 102.493L13.8517 103.059L13.6704 103.634L13.4828 104.217L13.2886 104.811L13.0874 105.413L12.879 106.025L12.6629 106.646L12.4387 107.276L12.2062 107.916L11.965 108.565L11.7146 109.223L11.4546 109.891L11.1847 110.567L10.9045 111.254L10.6134 111.949L10.3111 112.653L9.9971 113.367L9.67099 114.089L9.33229 114.82L8.98054 115.559L8.61524 116.307L8.23592 117.064L7.84209 117.828L7.43324 118.6L7.0089 119.379L6.56851 120.166L6.11161 120.96L5.63765 121.76L5.14613 122.566L4.63652 123.378L4.1083 124.196L3.56095 125.019L2.99396 125.845L2.40682 126.676L1.799 127.511L1.17002 128.347L0.519379 129.186L-0.153408 130.027L-0.848818 130.868L-1.56731 131.709L-2.30932 132.55L-3.07527 133.388L-3.86558 134.225L-4.68061 135.058L-5.52075 135.886L-6.3863 136.709L-7.27758 137.526L-8.19483 138.336L-9.13831 139.137L-10.1082 139.928L-11.1046 140.708L-12.1278 141.477L-13.1776 142.232L-14.2542 142.973L-15.3574 143.697L-16.4873 144.405L-17.6436 145.094L-18.8261 145.763L-20.0345 146.41L-21.2686 147.035L-22.5278 147.636L-23.8116 148.211L-25.1196 148.758L-26.451 149.278L-27.8053 149.767L-29.1815 150.225L-30.5788 150.65L-31.9962 151.04L-33.4328 151.395L-34.8874 151.713L-36.3588 151.992L-37.8458 152.232L-39.3471 152.431L-40.8611 152.588L-42.3865 152.702L-43.9216 152.771L-45.4649 152.796L-47.0146 152.774L-48.569 152.705L-50.1263 152.588L-51.6846 152.424L-53.242 152.21L-54.7966 151.946L-56.3464 151.633L-57.8894 151.27L-59.4236 150.857L-60.9469 150.394L-62.4572 149.88L-63.9526 149.316L-65.431 148.703L-66.8903 148.041L-68.3285 147.33L-69.7438 146.571L-71.1341 145.765L-72.4975 144.912L-73.8323 144.014L-75.1366 143.072L-76.4087 142.087L-77.647 141.06L-78.85 139.992L-80.0161 138.886L-81.1439 137.743L-82.2322 136.564L-83.2798 135.35L-84.2856 134.105L-85.2485 132.829L-86.1678 131.525L-87.0426 130.194L-87.8722 128.838L-88.6562 127.46L-89.3941 126.06L-90.0855 124.643L-90.7302 123.208L-91.3282 121.759L-91.8794 120.297L-92.3839 118.824L-92.8419 117.342L-93.2537 115.853L-93.6198 114.36L-93.9406 112.863L-94.2167 111.365L-94.4487 109.867L-94.6373 108.372L-94.7834 106.88L-94.8879 105.393L-94.9516 103.913L-94.9756 102.441L-94.9609 100.979L-94.9085 99.5284L-94.8196 98.0896L-94.6954 96.6641L-94.5371 95.2531L-94.3458 93.8576L-94.1228 92.4786L-93.8693 91.1169L-93.5867 89.7733L-93.2762 88.4486L-92.939 87.1435L-92.5764 85.8585L-92.1897 84.5942L-91.7802 83.3511L-91.349 82.1296L-90.8975 80.93L-90.4268 79.7526L-89.9382 78.5978L-89.4328 77.4656L-88.9118 76.3562L-88.3763 75.2698L-87.8274 74.2062L-87.2661 73.1657L-86.6936 72.148L-86.1107 71.1532L-85.5186 70.1811L-84.9181 69.2316L-84.3102 68.3045L-83.6958 67.3996L-83.0756 66.5167L-82.4506 65.6555L-81.8215 64.8158L-81.189 63.9972L-80.5539 63.1994L-79.9168 62.4221L-79.2784 61.665L-78.6394 60.9277L-78.0002 60.2098L-77.3616 59.511L-76.724 58.8308L-76.0878 58.1689L-75.4537 57.5249L-74.822 56.8983L-74.1931 56.2887L-73.5675 55.6959L-72.9455 55.1192L-72.3275 54.5584L-71.7138 54.0129L-71.1046 53.4825L-70.5003 52.9666L-69.9011 52.465L-69.3073 51.9771L-68.719 51.5025L-68.1366 51.041L-67.56 50.592L-66.9897 50.1552L-66.4255 49.7303L-65.8678 49.3167L-65.3167 48.9143L-64.7722 48.5225L-64.2344 48.1411L-63.7034 47.7697L-63.1793 47.4079L-62.6622 47.0554L-62.1521 46.7119L-61.649 46.377L-61.153 46.0505L-60.6641 45.7319L-60.1823 45.4211L-59.7076 45.1176L-59.24 44.8213L-58.7796 44.5318L-58.3262 44.2488L-57.8799 43.9721L-57.4406 43.7013L-57.0084 43.4364L-56.5832 43.1768L-56.1648 42.9226L-55.7534 42.6733L-55.3489 42.4287L-54.9512 42.1887L-54.5602 41.953L-54.1759 41.7213L-53.7982 41.4935L-53.4271 41.2693L-53.0625 41.0486L-52.7044 40.8311L-52.3526 40.6167L-52.0071 40.405L-51.6679 40.1961L-51.3348 39.9896L-51.0078 39.7855L-50.6868 39.5834L-50.3718 39.3833L-50.0626 39.185L-49.7592 38.9883L-49.4615 38.7931L-49.1694 38.5992L-48.8829 38.4065L-48.6018 38.2148L-48.3261 38.0239L-48.0558 37.8337L-47.7906 37.6441L-47.5306 37.4549L-47.2757 37.2661L-47.0258 37.0774L-46.7807 36.8887L-46.5405 36.6999L-46.305 36.5109L-46.0742 36.3216L-45.848 36.1318L-45.6263 35.9413L-45.409 35.7502L-45.1961 35.5582L-44.9874 35.3653L-44.7829 35.1713L-44.5825 34.9761L-44.3862 34.7796L-44.1938 34.5817L-44.0052 34.3822L-43.8205 34.1812L-43.6394 33.9783L-43.462 33.7736L-43.2881 33.567L-43.1177 33.3583L-42.9507 33.1473L-42.787 32.9341L-42.6265 32.7185L-42.4692 32.5004L-42.3149 32.2796L-42.1637 32.0562L-42.0153 31.8299L-41.8697 31.6007L-41.7269 31.3684L-41.5867 31.133L-41.4491 30.8943L-41.314 30.6522L-41.1812 30.4067L-41.0508 30.1576L-40.9226 29.9048L-40.7965 29.6482L-40.6725 29.3877L-40.5504 29.1232L-40.4302 28.8546L-40.3117 28.5817L-40.1949 28.3045L-40.0797 28.0228L-39.9659 27.7365L-39.8535 27.4456L-39.7423 27.1499L-39.6323 26.8492L-39.5233 26.5435L-39.4153 26.2327L-39.3081 25.9166L-39.2016 25.5951L-39.0957 25.2681L-38.9903 24.9356L-38.8852 24.5973L-38.7803 24.2531L-38.6755 23.903L-38.5706 23.5468L-38.4656 23.1844L-38.3602 22.8156L-38.2544 22.4404L-38.1479 22.0587L-38.0407 21.6702L-37.9325 21.275L-37.8232 20.8728L-37.7126 20.4636L-37.6006 20.0472L-37.487 19.6235L-37.3716 19.1924L-37.2542 18.7538L-37.1346 18.3076L-37.0126 17.8536L-36.888 17.3917L-36.7606 16.9219L-36.6302 16.444L-36.4966 15.9579L-36.3594 15.4634L-36.2185 14.9606L-36.0736 14.4493L-35.9245 13.9294L-35.7709 13.4007L-35.6126 12.8633L-35.4492 12.3171L-35.2804 11.7619L-35.1061 11.1977L-34.9257 10.6244L-34.7392 10.0419L-34.5461 9.45028L-34.346 8.8494L-34.1388 8.23924L-33.9239 7.61976L-33.7011 6.99094L-33.4699 6.35278L-33.2301 5.70526L-32.9812 5.04841L-32.7228 4.38225L-32.4545 3.7068L-32.1759 3.02212L-31.8866 2.32827L-31.5861 1.62532L-31.274 0.91338L-30.9498 0.192555L-30.6132 -0.537037L-30.2635 -1.27524L-29.9004 -2.02189L-29.5234 -2.77679L-29.1319 -3.53973L-28.7255 -4.3105L-28.3036 -5.08881L-27.8658 -5.8744L-27.4116 -6.66696L-26.9404 -7.46614L-26.4517 -8.27159L-25.945 -9.08291L-25.4198 -9.89969L-24.8755 -10.7214L-24.3117 -11.5477L-23.7278 -12.378L-23.1233 -13.2117L-22.4977 -14.0482L-21.8506 -14.8869L-21.1813 -15.7272L-20.4896 -16.5683L-19.7748 -17.4096L-19.0365 -18.2501L-18.2744 -19.0892L-17.488 -19.926L-16.6769 -20.7594L-15.8408 -21.5887L-14.9793 -22.4129L-14.0922 -23.2308L-13.1791 -24.0415L-12.2398 -24.8439L-11.2741 -25.6368L-10.2819 -26.4191L-9.26306 -27.1895L-8.21748 -27.9469L-7.14516 -28.6899L-6.04614 -29.4172L-4.92051 -30.1275L-3.76842 -30.8195L-2.59006 -31.4917L-1.38573 -32.1428L-0.155755 -32.7714L1.09946 -33.3759L2.37942 -33.955L3.6836 -34.5073L5.01136 -35.0311L6.36201 -35.5252L7.73476 -35.9881L9.12875 -36.4183L10.5431 -36.8144L11.9767 -37.1751L13.4285 -37.4989L14.8973 -37.7846L16.3819 -38.0309L17.881 -38.2364L19.3931 -38.4002L20.9168 -38.5209L22.4504 -38.5975L23.9925 -38.6291L25.5413 -38.6146L27.0951 -38.5533L28.6521 -38.4445L30.2103 -38.2873L31.768 -38.0812L33.3232 -37.8259L34.8739 -37.5207L36.4181 -37.1656L37.9538 -36.7604L39.479 -36.3049L40.9915 -35.7993L42.4894 -35.2437L43.9706 -34.6384L45.4331 -33.9838L46.8749 -33.2805L48.2939 -32.5291L49.6883 -31.7303L51.0562 -30.8851L52.3956 -29.9943L53.7049 -29.0591L54.9823 -28.0807L56.2261 -27.0603L57.4347 -25.9993L58.6068 -24.8992L59.7408 -23.7615L60.8355 -22.5879L61.8897 -21.3799L62.9022 -20.1395L63.872 -18.8684L64.7983 -17.5684L65.6802 -16.2416L66.5171 -14.8897L67.3084 -13.5148L68.0536 -12.1188L68.7524 -10.7038L69.4046 -9.27171L70.01 -7.82459L70.5686 -6.36441L71.0806 -4.89315L71.546 -3.41275L71.9652 -1.92515L72.3385 -0.432224L72.6664 1.06416L72.9496 2.56221L73.1886 4.06016L73.3841 5.55629L73.5369 7.04897L73.6479 8.5366L73.7181 10.0177L73.7483 11.4907L73.7397 12.9543L73.6932 14.4071L73.6101 15.848L73.4915 17.2756L73.3385 18.689L73.1523 20.087L72.9343 21.4687L72.6856 22.8333L72.4076 24.1798L72.1014 25.5075L71.7683 26.8158L71.4097 28.1041L71.0268 29.3717L70.6208 30.6182L70.193 31.8432L69.7446 33.0463L69.2769 34.2272L68.7911 35.3856L68.2883 36.5214L67.7697 37.6344L67.2364 38.7245L66.6895 39.7917L66.1302 40.8359L65.5594 41.8572L64.9781 42.8557L64.3874 43.8314L63.7882 44.7845L63.1814 45.7151L62.568 46.6235L61.9487 47.5099L61.3244 48.3746L60.6958 49.2177L60.0638 50.0397L59.4291 50.8407L58.7923 51.6212L58.1541 52.3815L57.5151 53.122L56.8759 53.8429L56.2372 54.5448L55.5994 55.2279L54.9629 55.8927L54.3285 56.5396L53.6963 57.1689L53.067 57.7811L52.4409 58.3766L51.8183 58.9558L51.1996 59.5192L50.5851 60.067L49.9752 60.5998L49.3701 61.118L48.7701 61.6219L48.1754 62.1119L47.5863 62.5886L47.0029 63.0522L46.4254 63.5031L45.854 63.9418L45.2889 64.3686L44.7301 64.784L44.1779 65.1882L43.6323 65.5816L43.0935 65.9646L42.5614 66.3376L42.0363 66.7009L41.518 67.0549L41.0068 67.3998L40.5026 67.736L40.0054 68.0639L39.5154 68.3837L39.0325 68.6957L38.5566 69.0003L38.0879 69.2978L37.6263 69.5884L37.1718 69.8724L36.7244 70.1501L36.284 70.4217L35.8507 70.6876L35.4243 70.948L35.0049 71.2031L34.5924 71.4531L34.1868 71.6984L33.788 71.9392L33.3959 72.1756L33.0105 72.4079L32.6318 72.6363L32.2597 72.861L31.8941 73.0823L31.5349 73.3003L31.1821 73.5152L30.8356 73.7272L30.4954 73.9366L30.1614 74.1435L29.8334 74.348L29.5115 74.5503L29.1955 74.7507L28.8854 74.9493L28.581 75.1462L28.2824 75.3417L27.9895 75.5358L27.7021 75.7287L27.4201 75.9206L27.1436 76.1116L26.8724 76.3019L26.6064 76.4915L26.3456 76.6808L26.0899 76.8697L25.8392 77.0584L25.5933 77.247L25.3524 77.4358L25.1161 77.6247L24.8846 77.814L24.6577 78.0038L24.4352 78.1941L24.2173 78.3851L24.0036 78.5769L23.7943 78.7697L23.5891 78.9635L23.3881 79.1585L23.1911 79.3548L22.9981 79.5525L22.8089 79.7517L22.6236 79.9525L22.4419 80.1551L22.2639 80.3594L22.0895 80.5658L21.9185 80.7742L21.751 80.9847L21.5868 81.1976L21.5352 81.2659Z" fill="#D5D2D9"/>
</g>
<defs>
<clipPath id="clip0_23731_361">
<rect width="320" height="685" fill="white" transform="translate(0 0.757812)"/>
</clipPath>
</defs>
</svg>
